<svg width="514" height="514" viewBox="0 0 514 514" fill="none" xmlns="http://www.w3.org/2000/svg">
<path d="M479.963 325.053H311.484V227.558H479.963V325.053ZM312.512 324.025H478.935V228.586H312.512V324.025Z" fill="#E0E0E0"/>
<path d="M445.206 279.544H334.049V282.803H445.206V279.544Z" fill="#F0F0F0"/>
<path d="M452.865 291.694H334.049V295.251H452.865V291.694Z" fill="#F0F0F0"/>
<path d="M452.865 303.989H334.049V307.546H452.865V303.989Z" fill="#F0F0F0"/>
<path d="M372.897 261.893H334.049V270.353H372.897V261.893Z" fill="#F0F0F0"/>
<path d="M479.449 228.071H312.029V243.594H479.449V228.071Z" fill="#E0E0E0"/>
<path d="M466.568 241.271C466.352 241.066 468.511 238.465 471.379 235.463C474.247 232.461 476.766 230.189 476.971 230.385C477.177 230.58 475.028 233.191 472.16 236.203C469.292 239.215 466.774 241.477 466.568 241.271Z" fill="white"/>
<path d="M476.992 241.272C476.786 241.477 474.278 239.216 471.4 236.204C468.521 233.191 466.373 230.591 466.589 230.385C466.805 230.179 469.303 232.441 472.181 235.463C475.059 238.486 477.187 241.066 476.992 241.272Z" fill="white"/>
<path d="M272.646 35.0029H105.226V131.481H272.646V35.0029Z" fill="#E6E6E6"/>
<path d="M238.414 86.4854H127.256V89.7441H238.414V86.4854Z" fill="#F0F0F0"/>
<path d="M246.072 98.6357H127.256V102.193H246.072V98.6357Z" fill="#F0F0F0"/>
<path d="M246.072 110.931H127.256V114.488H246.072V110.931Z" fill="#F0F0F0"/>
<path d="M166.104 68.834H127.256V77.2944H166.104V68.834Z" fill="#F0F0F0"/>
<path d="M272.646 35.0029H105.226V50.5257H272.646V35.0029Z" fill="#E0E0E0"/>
<path d="M259.2 48.1304C258.984 47.9351 261.143 45.3239 264.011 42.3222C266.879 39.3204 269.398 37.0485 269.603 37.2541C269.809 37.4597 267.66 40.0606 264.792 43.0623C261.924 46.0641 259.406 48.3154 259.2 48.1304Z" fill="white"/>
<path d="M269.603 48.1304C269.398 48.336 266.889 46.0744 264.011 43.0624C261.133 40.0503 258.984 37.4598 259.2 37.2542C259.416 37.0486 261.914 39.3102 264.792 42.3222C267.671 45.3343 269.819 47.9351 269.603 48.1304Z" fill="white"/>
<path d="M209.239 214.225H40.791V116.719H209.239V214.225ZM41.819 213.197H208.211V117.747H41.819V213.197Z" fill="#E0E0E0"/>
<path d="M174.493 168.715H63.335V171.974H174.493V168.715Z" fill="#F0F0F0"/>
<path d="M182.151 180.866H63.335V184.423H182.151V180.866Z" fill="#F0F0F0"/>
<path d="M182.151 193.161H63.335V196.718H182.151V193.161Z" fill="#F0F0F0"/>
<path d="M102.183 151.064H63.335V159.525H102.183V151.064Z" fill="#F0F0F0"/>
<path d="M208.725 117.232H41.3049V132.755H208.725V117.232Z" fill="#E0E0E0"/>
<path d="M403.644 236.562H205.96V413.543H403.644V236.562Z" fill="#E6E6E6"/>
<path d="M215.901 180.814H61.0427V341.707H215.901V180.814Z" fill="#F0F0F0"/>
<path d="M215.901 180.814H61.0427V198.342H215.901V180.814Z" fill="#E0E0E0"/>
<path d="M73.8309 189.398C73.8027 190.034 73.5885 190.647 73.2149 191.162C72.8412 191.677 72.3246 192.071 71.7291 192.295C71.1336 192.519 70.4854 192.563 69.8651 192.422C69.2447 192.281 68.6794 191.961 68.2394 191.501C67.7994 191.042 67.504 190.463 67.3898 189.837C67.2757 189.211 67.3479 188.565 67.5975 187.98C67.847 187.395 68.2629 186.896 68.7935 186.545C69.3242 186.194 69.9462 186.006 70.5825 186.006C71.4623 186.027 72.2978 186.396 72.9064 187.032C73.5151 187.668 73.8475 188.518 73.8309 189.398Z" fill="white"/>
<path d="M87.0202 189.398C86.9939 190.037 86.7805 190.654 86.4064 191.172C86.0323 191.69 85.5141 192.087 84.9162 192.313C84.3184 192.539 83.6672 192.584 83.0439 192.443C82.4205 192.302 81.8525 191.98 81.4105 191.518C80.9684 191.057 80.6719 190.475 80.5577 189.846C80.4436 189.218 80.5169 188.569 80.7686 187.982C81.0203 187.394 81.4391 186.893 81.9731 186.542C82.507 186.191 83.1325 186.004 83.7717 186.006C84.6515 186.027 85.487 186.396 86.0957 187.032C86.7044 187.668 87.0367 188.518 87.0202 189.398Z" fill="white"/>
<path d="M100.209 189.398C100.183 190.037 99.9697 190.654 99.5956 191.172C99.2215 191.69 98.7033 192.087 98.1054 192.313C97.5076 192.539 96.8564 192.584 96.2331 192.443C95.6098 192.302 95.0417 191.98 94.5997 191.518C94.1576 191.057 93.8611 190.475 93.747 189.846C93.6328 189.218 93.7062 188.569 93.9578 187.982C94.2095 187.394 94.6283 186.893 95.1623 186.542C95.6963 186.191 96.3217 186.004 96.9609 186.006C97.8407 186.027 98.6762 186.396 99.2849 187.032C99.8936 187.668 100.226 188.518 100.209 189.398Z" fill="white"/>
<path d="M457.851 70.1914H260.166V267.218H457.851V70.1914Z" fill="#F0F0F0"/>
<path d="M457.851 70.1914H260.166V93.27H457.851V70.1914Z" fill="#E0E0E0"/>
<path d="M277.005 81.4991C276.969 82.3382 276.687 83.148 276.194 83.8282C275.702 84.5084 275.02 85.029 274.234 85.3252C273.449 85.6215 272.593 85.6804 271.774 85.4947C270.955 85.309 270.209 84.8868 269.628 84.2806C269.046 83.6744 268.656 82.9108 268.505 82.0847C268.354 81.2586 268.449 80.4063 268.778 79.6337C269.108 78.8611 269.656 78.2023 270.357 77.7389C271.057 77.2756 271.878 77.0281 272.718 77.0273C273.879 77.0543 274.981 77.54 275.785 78.3781C276.588 79.2162 277.027 80.3384 277.005 81.4991Z" fill="white"/>
<path d="M293.114 78.4769C293.683 79.0957 294.059 79.8687 294.192 80.6993C294.326 81.5299 294.212 82.3815 293.866 83.148C293.519 83.9145 292.954 84.562 292.242 85.0098C291.529 85.4576 290.701 85.6859 289.86 85.6663C289.019 85.6466 288.202 85.38 287.512 84.8994C286.821 84.4189 286.287 83.7458 285.976 82.9639C285.666 82.1821 285.592 81.3261 285.764 80.5026C285.937 79.6791 286.347 78.9246 286.946 78.3329C287.783 77.5357 288.903 77.1031 290.059 77.1301C291.215 77.1571 292.314 77.6414 293.114 78.4769Z" fill="white"/>
<path d="M311.731 81.4991C311.694 82.3382 311.413 83.148 310.92 83.8282C310.427 84.5084 309.746 85.029 308.96 85.3252C308.174 85.6215 307.319 85.6804 306.5 85.4947C305.681 85.309 304.935 84.8868 304.353 84.2806C303.772 83.6744 303.382 82.9108 303.231 82.0847C303.08 81.2586 303.175 80.4063 303.504 79.6337C303.833 78.8611 304.382 78.2023 305.083 77.7389C305.783 77.2756 306.604 77.0281 307.444 77.0273C308.605 77.0543 309.707 77.54 310.511 78.3781C311.314 79.2162 311.753 80.3384 311.731 81.4991Z" fill="white"/>
<path d="M415.147 465.818C415.147 465.962 343.763 466.085 255.736 466.085C167.708 466.085 96.2927 465.962 96.2927 465.818C96.2927 465.674 167.667 465.551 255.736 465.551C343.804 465.551 415.147 465.684 415.147 465.818Z" fill="#263238"/>
<path d="M345.593 339.969C329.71 328.877 326.112 308.286 326.74 289.772C326.842 286.688 326.503 283.419 327.973 280.716C329.443 278.012 332.877 276.151 335.642 277.446C337.934 278.526 338.932 281.199 340.217 283.409C341.931 286.353 344.444 288.751 347.464 290.327C349.428 291.355 351.864 291.972 353.807 290.903C356.48 289.433 356.788 285.763 356.767 282.679C356.767 276.943 356.733 271.213 356.665 265.491C356.48 262.418 356.792 259.335 357.59 256.362C358.546 253.443 360.674 250.739 363.583 249.917C366.492 249.094 370.121 250.79 370.779 253.792C370.892 255.064 370.923 256.341 370.872 257.616C370.954 258.901 371.55 260.31 372.753 260.7C373.956 261.091 375.21 260.197 376.135 259.292C379.301 256.208 381.46 252.189 383.465 248.22C385.469 244.252 387.433 240.171 390.311 236.789C393.189 233.407 397.168 230.724 401.619 230.467C406.07 230.21 410.707 232.944 411.817 237.262C412.927 241.58 410.408 245.99 407.705 249.495C403.625 254.699 398.816 259.286 393.426 263.116C392.374 263.691 391.534 264.588 391.031 265.676C390.362 267.732 392.305 269.788 394.331 270.436C396.623 271.196 399.111 270.96 401.527 271.248C403.942 271.535 406.512 272.584 407.427 274.846C408.681 277.991 406.05 281.281 403.469 283.44C398.288 287.757 392.405 291.154 386.076 293.483C383.814 294.306 381.439 295.036 379.61 296.619C377.78 298.202 376.69 300.967 377.79 303.136C378.89 305.305 381.717 305.994 384.092 305.552C386.466 305.11 388.574 303.835 390.835 302.982C395.06 301.389 400.509 301.676 403.171 305.326C403.996 306.583 404.518 308.014 404.697 309.507C404.875 311 404.705 312.514 404.199 313.93C403.17 316.748 401.587 319.332 399.543 321.527C392.81 329.572 384.061 335.684 374.192 339.24C364.395 342.632 355.318 343.557 345.583 339.99" fill="#45B467"/>
<path d="M407.294 233.006C407.294 233.006 407.201 233.109 406.996 233.294L406.081 234.106C405.279 234.825 404.097 235.874 402.606 237.262C398.38 241.186 394.455 245.423 390.866 249.937C388.574 252.785 386.199 256.012 383.67 259.518C381.141 263.023 378.53 266.807 375.94 270.826C373.178 275.065 370.649 279.45 368.363 283.964C367.171 286.318 366.122 288.775 365.043 291.283L361.856 298.942C357.656 308.589 353.997 318.462 350.898 328.517C348.401 336.744 346.68 345.187 345.758 353.734C345.16 359.503 345.064 365.312 345.47 371.097C345.634 373.153 345.789 374.726 345.932 375.795C345.994 376.309 346.035 376.72 346.076 377.018V377.44C346.032 377.306 346.001 377.168 345.984 377.029C345.932 376.731 345.871 376.33 345.789 375.816C345.603 374.788 345.408 373.163 345.223 371.107C344.727 365.312 344.762 359.483 345.326 353.693C346.191 345.109 347.875 336.627 350.353 328.363C353.426 318.28 357.075 308.381 361.28 298.716L364.55 291.088C365.629 288.59 366.688 286.112 367.891 283.748C370.192 279.221 372.742 274.825 375.529 270.579C378.16 266.467 380.812 262.746 383.311 259.271C385.809 255.797 388.224 252.548 390.507 249.711C394.132 245.209 398.109 241.001 402.4 237.128C403.922 235.761 405.135 234.733 405.957 234.044L406.913 233.273C407.031 233.171 407.158 233.082 407.294 233.006Z" fill="#263238"/>
<path d="M368.024 283.728C367.879 283.304 367.779 282.867 367.726 282.422C367.561 281.569 367.376 280.366 367.161 278.804C366.719 275.72 366.266 271.495 365.783 266.817C365.3 262.14 364.755 257.905 364.303 254.851C364.066 253.33 363.861 252.107 363.717 251.253C363.604 250.817 363.546 250.368 363.542 249.917C363.719 250.329 363.847 250.76 363.922 251.202C364.149 252.045 364.406 253.258 364.693 254.79C365.279 257.874 365.855 262.068 366.338 266.756C366.821 271.443 367.233 275.555 367.551 278.752C367.705 280.192 367.839 281.415 367.942 282.392C368.022 282.832 368.049 283.281 368.024 283.728Z" fill="#263238"/>
<path d="M407.581 276.347C407.081 276.456 406.572 276.518 406.06 276.532C405.032 276.625 403.572 276.748 401.763 276.953C398.144 277.344 393.169 278.064 387.71 279.092C382.252 280.12 377.348 281.281 373.822 282.176C372.064 282.628 370.645 283.039 369.71 283.317C369.21 283.494 368.694 283.618 368.168 283.687C368.643 283.448 369.138 283.252 369.648 283.101C370.615 282.762 372.013 282.289 373.76 281.785C377.266 280.757 382.169 279.534 387.649 278.485C392.29 277.598 396.973 276.946 401.681 276.532C403.5 276.378 404.97 276.316 405.998 276.296C406.526 276.26 407.057 276.277 407.581 276.347Z" fill="#263238"/>
<path d="M350.856 327.644C350.747 327.495 350.657 327.333 350.589 327.161L349.911 325.732C349.325 324.488 348.533 322.648 347.587 320.396C345.675 315.873 343.239 309.541 340.648 302.509C338.058 295.478 335.673 289.145 333.864 284.571C332.98 282.35 332.25 280.531 331.705 279.174L331.129 277.704C331.049 277.534 330.994 277.354 330.965 277.169C331.074 277.318 331.164 277.48 331.232 277.652L331.91 279.081C332.486 280.325 333.288 282.165 334.234 284.416C336.146 288.94 338.582 295.272 341.173 302.304C343.763 309.335 346.148 315.668 347.958 320.242C348.842 322.463 349.572 324.282 350.106 325.639C350.343 326.225 350.538 326.667 350.692 327.109C350.772 327.279 350.827 327.459 350.856 327.644Z" fill="#263238"/>
<path d="M403.367 310.713C403.202 310.807 403.026 310.88 402.842 310.929L401.321 311.443L395.698 313.262C390.948 314.804 384.39 317.004 377.194 319.43C369.998 321.856 363.408 324.015 358.628 325.454C356.243 326.184 354.3 326.739 352.954 327.11L351.401 327.51C351.221 327.568 351.035 327.606 350.846 327.624C351.011 327.529 351.187 327.456 351.37 327.408L352.892 326.894L358.515 325.074C363.264 323.532 369.823 321.332 377.019 318.906C384.215 316.48 390.794 314.321 395.574 312.882C397.97 312.152 399.902 311.597 401.259 311.227L402.812 310.826C402.992 310.769 403.178 310.731 403.367 310.713Z" fill="#263238"/>
<path d="M381.943 61.3511L376.649 63.2427L374.377 56.3242C370.203 43.5667 356.901 36.7922 344.678 41.0995C332.455 45.4069 325.948 59.3979 330.122 72.1554L332.393 79.0739L327.079 80.9757C325.052 81.7617 323.406 83.2985 322.484 85.2667C321.561 87.2348 321.432 89.4828 322.124 91.5435L336.855 136.56C337.161 137.58 337.669 138.528 338.348 139.348C339.027 140.168 339.865 140.843 340.81 141.333C341.756 141.823 342.79 142.118 343.852 142.2C344.914 142.283 345.981 142.151 346.991 141.813L401.855 122.188C403.909 121.403 405.578 119.853 406.512 117.863C407.445 115.873 407.571 113.598 406.862 111.518L392.12 66.5014C391.807 65.4842 391.291 64.5405 390.605 63.7268C389.918 62.9131 389.075 62.246 388.125 61.7654C387.175 61.2847 386.138 61.0003 385.076 60.9291C384.014 60.858 382.949 61.0015 381.943 61.3511ZM340.124 68.5471C338.999 65.23 339.201 61.6061 340.688 58.4345C342.175 55.263 344.832 52.7901 348.101 51.5337C349.716 50.9813 351.425 50.7598 353.127 50.8824C354.829 51.005 356.489 51.4692 358.008 52.2472C359.527 53.0253 360.873 54.1014 361.967 55.4112C363.061 56.721 363.88 58.2377 364.375 59.8708L366.636 66.7893L342.386 75.4656L340.124 68.5471ZM370.964 108.495L374.727 119.988C374.796 120.219 374.773 120.467 374.664 120.681C374.555 120.896 374.368 121.06 374.141 121.14L368.867 123.021C368.657 123.079 368.433 123.054 368.241 122.95C368.05 122.847 367.905 122.673 367.839 122.466L364.046 111.024C361.954 110.91 359.947 110.16 358.294 108.874C356.64 107.588 355.419 105.827 354.794 103.828C353.9 101.185 354.063 98.2986 355.249 95.773C356.435 93.2475 358.552 91.2788 361.157 90.2791C362.443 89.8396 363.805 89.6636 365.16 89.7615C366.516 89.8594 367.838 90.2293 369.048 90.849C370.257 91.4687 371.33 92.3256 372.201 93.3686C373.073 94.4116 373.725 95.6194 374.12 96.9199C374.781 98.9508 374.836 101.13 374.277 103.192C373.719 105.253 372.571 107.107 370.974 108.526L370.964 108.495Z" fill="#45B467"/>
<path d="M376.412 63.1189C376.412 63.2628 366.595 66.9533 354.382 71.3429C342.17 75.7325 332.208 79.2585 332.157 79.1557C332.106 79.0529 341.974 75.3315 354.197 70.9317C366.42 66.5318 376.361 62.9853 376.412 63.1189Z" fill="#263238"/>
<path d="M388.07 65.0107C388.115 65.1 388.153 65.1928 388.183 65.2883C388.265 65.4939 388.358 65.7612 388.481 66.0901C388.748 66.8406 389.119 67.8789 389.581 69.1741L393.529 80.6672C395.173 85.5399 397.137 91.3173 399.316 97.732C400.344 100.95 401.557 104.301 402.688 107.827C403.293 109.644 403.555 111.558 403.459 113.471C403.372 114.465 403.089 115.433 402.626 116.318C402.132 117.2 401.473 117.979 400.684 118.611C399.095 119.77 397.332 120.669 395.461 121.273L390.167 123.175L380.144 126.763L363.172 132.807L351.71 136.837L348.626 137.865L347.803 138.132C347.715 138.171 347.621 138.196 347.526 138.204C347.526 138.204 347.608 138.204 347.783 138.081L348.584 137.762L351.668 136.601L363.069 132.406L380.01 126.238L390.013 122.62L395.307 120.708C397.125 120.128 398.837 119.257 400.375 118.128C401.109 117.541 401.724 116.819 402.184 116C402.62 115.181 402.882 114.282 402.955 113.358C403.05 111.515 402.799 109.67 402.215 107.919C401.105 104.424 399.933 101.042 398.874 97.8245C396.736 91.3995 394.762 85.6016 393.2 80.7289C391.637 75.8561 390.321 71.9395 389.417 69.1844C388.985 67.8377 388.656 66.7892 388.389 66.0285L388.142 65.2061C388.111 65.1438 388.087 65.0783 388.07 65.0107Z" fill="#263238"/>
<path d="M359.121 50.8342C359.121 50.8342 358.577 50.567 357.569 50.1558C356.133 49.604 354.614 49.2982 353.077 49.2511C350.798 49.173 348.53 49.6013 346.436 50.5053C343.89 51.6309 341.713 53.4516 340.155 55.7584C338.586 58.0585 337.745 60.7768 337.739 63.5609C337.76 65.8428 338.107 68.11 338.767 70.2943C339.302 72.1652 339.857 73.6558 340.227 74.6941C340.445 75.2215 340.624 75.7644 340.761 76.3184C340.469 75.8253 340.225 75.3055 340.031 74.7661C339.61 73.7381 339.003 72.2783 338.407 70.3971C337.675 68.1898 337.277 65.8857 337.225 63.5609C337.198 60.6716 338.059 57.8437 339.692 55.4602C341.305 53.0692 343.571 51.1922 346.22 50.053C348.379 49.144 350.718 48.7431 353.056 48.881C354.627 48.9611 356.17 49.3269 357.61 49.9604C357.995 50.138 358.366 50.3442 358.72 50.5772C358.867 50.6415 359.002 50.7282 359.121 50.8342Z" fill="#263238"/>
<path d="M359.594 91.0602C359.758 90.9608 359.93 90.8748 360.108 90.8032C360.623 90.571 361.156 90.3819 361.702 90.2378C362.568 89.9821 363.462 89.8302 364.364 89.7855C365.592 89.7195 366.819 89.9049 367.973 90.3303C370.604 91.2555 373.02 93.9386 374.212 97.5263C374.784 99.4517 374.784 101.502 374.212 103.427C373.578 105.517 372.442 107.419 370.902 108.968L370.964 108.69C372.331 112.443 373.822 116.513 375.364 120.759L375.456 121.016L375.199 121.109L372.845 121.89L367.705 123.607L367.448 123.689L367.366 123.432C365.958 119.176 364.416 115.208 363.254 111.312L363.48 111.487C361.47 111.32 359.554 110.565 357.97 109.317C356.537 108.214 355.362 106.81 354.526 105.205C353.773 103.782 353.397 102.189 353.437 100.579C353.484 98.9341 353.895 97.3196 354.64 95.8516C355.384 94.3836 356.444 93.0985 357.744 92.0882C358.279 91.654 358.879 91.307 359.522 91.0602C358.942 91.4047 358.379 91.7787 357.836 92.1807C356.409 93.3885 355.315 94.9423 354.66 96.6936C354.098 98.0142 353.834 99.443 353.89 100.877C353.945 102.312 354.317 103.716 354.979 104.99C355.8 106.533 356.947 107.88 358.34 108.937C359.851 110.123 361.678 110.838 363.593 110.993H363.768L363.819 111.147C364.95 114.971 366.503 118.97 367.931 123.247L367.592 123.082L372.732 121.366L375.076 120.574L374.912 120.924C373.38 116.678 371.9 112.597 370.543 108.845V108.69L370.666 108.567C372.16 107.082 373.275 105.259 373.914 103.252C374.46 101.411 374.46 99.4503 373.914 97.6085C372.794 94.1545 370.481 91.5331 367.973 90.6079C366.862 90.1797 365.677 89.9804 364.488 90.0219C363.6 90.0423 362.717 90.163 361.856 90.3817C360.324 90.7621 359.605 91.1116 359.594 91.0602Z" fill="#263238"/>
<path d="M327.819 387.885L225.132 387.412C219.202 387.38 213.527 384.995 209.354 380.781C205.181 376.568 202.851 370.87 202.876 364.94L203.966 107.519C203.978 104.581 204.569 101.674 205.705 98.9645C206.841 96.2551 208.5 93.7962 210.587 91.7283C212.674 89.6604 215.148 88.024 217.868 86.9128C220.588 85.8016 223.5 85.2374 226.438 85.2522L329.114 85.7251C335.044 85.755 340.72 88.1374 344.895 92.3489C349.07 96.5604 351.403 102.257 351.381 108.187L350.291 365.598C350.279 368.537 349.688 371.445 348.552 374.155C347.416 376.866 345.758 379.326 343.671 381.396C341.584 383.465 339.11 385.104 336.39 386.217C333.671 387.331 330.758 387.897 327.819 387.885Z" fill="#455A64"/>
<path d="M328.96 94.5764H309.058C308.409 94.5884 307.768 94.7282 307.173 94.9879C306.577 95.2476 306.039 95.622 305.588 96.0898C305.138 96.5576 304.784 97.1095 304.547 97.7141C304.309 98.3188 304.194 98.9642 304.206 99.6136V103.222C304.218 103.871 304.102 104.516 303.865 105.12C303.628 105.724 303.273 106.275 302.823 106.742C302.372 107.209 301.834 107.582 301.238 107.841C300.643 108.099 300.003 108.238 299.354 108.249L260.557 108.074C259.244 108.039 258 107.485 257.096 106.532C256.192 105.58 255.702 104.308 255.736 102.996V99.3874C255.769 98.0766 255.281 96.8061 254.379 95.8542C253.478 94.9024 252.235 94.3467 250.925 94.3091H243.924L226.499 94.2268C222.355 94.2022 218.369 95.8207 215.416 98.7282C212.462 101.636 210.781 105.595 210.74 109.739L209.712 361.003C209.703 363.059 210.098 365.097 210.876 367C211.654 368.903 212.8 370.634 214.247 372.095C215.694 373.556 217.415 374.717 219.311 375.512C221.206 376.308 223.241 376.722 225.297 376.732L327.768 377.204C329.825 377.214 331.864 376.818 333.769 376.039C335.673 375.261 337.405 374.115 338.867 372.667C340.328 371.219 341.49 369.497 342.286 367.6C343.082 365.702 343.497 363.667 343.506 361.61L344.534 110.346C344.559 106.19 342.932 102.194 340.012 99.237C337.091 96.2799 333.116 94.6035 328.96 94.5764Z" fill="white"/>
<path d="M315.175 343.681L238.979 343.352C238.188 343.352 237.55 342.488 237.561 341.44L237.643 321.507C237.643 320.479 238.291 319.595 239.082 319.595L315.277 319.944C315.716 320.02 316.109 320.262 316.373 320.621C316.637 320.979 316.753 321.425 316.696 321.867L316.624 341.779C316.624 342.838 315.966 343.691 315.175 343.681Z" fill="#45B467"/>
<path d="M263.905 335V327.525H264.81V334.197H268.285V335H263.905ZM271.847 335.117C271.341 335.117 270.897 334.996 270.515 334.755C270.135 334.515 269.839 334.178 269.624 333.744C269.413 333.311 269.307 332.805 269.307 332.226C269.307 331.642 269.413 331.132 269.624 330.697C269.839 330.261 270.135 329.923 270.515 329.682C270.897 329.441 271.341 329.321 271.847 329.321C272.353 329.321 272.796 329.441 273.176 329.682C273.558 329.923 273.855 330.261 274.066 330.697C274.28 331.132 274.387 331.642 274.387 332.226C274.387 332.805 274.28 333.311 274.066 333.744C273.855 334.178 273.558 334.515 273.176 334.755C272.796 334.996 272.353 335.117 271.847 335.117ZM271.847 334.343C272.232 334.343 272.548 334.244 272.796 334.047C273.044 333.85 273.228 333.591 273.347 333.27C273.467 332.949 273.526 332.601 273.526 332.226C273.526 331.851 273.467 331.502 273.347 331.179C273.228 330.855 273.044 330.593 272.796 330.394C272.548 330.194 272.232 330.095 271.847 330.095C271.463 330.095 271.146 330.194 270.898 330.394C270.65 330.593 270.466 330.855 270.347 331.179C270.228 331.502 270.168 331.851 270.168 332.226C270.168 332.601 270.228 332.949 270.347 333.27C270.466 333.591 270.65 333.85 270.898 334.047C271.146 334.244 271.463 334.343 271.847 334.343ZM277.965 337.219C277.549 337.219 277.191 337.166 276.892 337.059C276.593 336.954 276.344 336.815 276.144 336.642C275.947 336.472 275.79 336.29 275.673 336.095L276.359 335.613C276.437 335.715 276.536 335.832 276.655 335.964C276.774 336.097 276.937 336.213 277.144 336.31C277.353 336.41 277.627 336.46 277.965 336.46C278.418 336.46 278.791 336.35 279.086 336.131C279.38 335.912 279.527 335.569 279.527 335.102V333.963H279.454C279.391 334.066 279.301 334.192 279.184 334.343C279.07 334.491 278.904 334.624 278.688 334.741C278.474 334.855 278.184 334.912 277.819 334.912C277.367 334.912 276.96 334.805 276.6 334.591C276.243 334.377 275.959 334.066 275.75 333.657C275.543 333.248 275.44 332.752 275.44 332.168C275.44 331.593 275.541 331.093 275.742 330.668C275.944 330.239 276.225 329.908 276.586 329.675C276.946 329.439 277.362 329.321 277.834 329.321C278.199 329.321 278.488 329.382 278.703 329.503C278.919 329.623 279.085 329.759 279.199 329.912C279.316 330.063 279.406 330.187 279.469 330.284H279.557V329.394H280.389V335.161C280.389 335.642 280.279 336.034 280.06 336.336C279.844 336.64 279.552 336.863 279.184 337.004C278.819 337.147 278.413 337.219 277.965 337.219ZM277.936 334.139C278.282 334.139 278.574 334.06 278.812 333.901C279.05 333.743 279.232 333.516 279.356 333.219C279.48 332.922 279.542 332.567 279.542 332.153C279.542 331.749 279.481 331.393 279.359 331.084C279.238 330.775 279.058 330.533 278.819 330.357C278.581 330.182 278.286 330.095 277.936 330.095C277.571 330.095 277.267 330.187 277.024 330.372C276.783 330.557 276.601 330.805 276.48 331.117C276.361 331.428 276.301 331.774 276.301 332.153C276.301 332.542 276.362 332.887 276.483 333.186C276.608 333.483 276.79 333.716 277.031 333.887C277.274 334.055 277.576 334.139 277.936 334.139ZM281.965 335V329.394H282.827V335H281.965ZM282.403 328.459C282.236 328.459 282.091 328.402 281.969 328.288C281.85 328.174 281.79 328.036 281.79 327.876C281.79 327.715 281.85 327.577 281.969 327.463C282.091 327.349 282.236 327.292 282.403 327.292C282.571 327.292 282.715 327.349 282.834 327.463C282.956 327.577 283.017 327.715 283.017 327.876C283.017 328.036 282.956 328.174 282.834 328.288C282.715 328.402 282.571 328.459 282.403 328.459ZM285.266 331.628V335H284.404V329.394H285.237V330.27H285.31C285.441 329.985 285.641 329.756 285.908 329.584C286.176 329.408 286.521 329.321 286.945 329.321C287.324 329.321 287.656 329.399 287.941 329.554C288.226 329.708 288.447 329.941 288.605 330.255C288.764 330.567 288.843 330.961 288.843 331.438V335H287.981V331.496C287.981 331.056 287.867 330.713 287.638 330.467C287.41 330.219 287.096 330.095 286.697 330.095C286.422 330.095 286.176 330.154 285.959 330.273C285.745 330.393 285.576 330.567 285.452 330.795C285.328 331.024 285.266 331.301 285.266 331.628Z" fill="#E8E8E3"/>
<path d="M254.177 168.438L227.738 168.318L227.716 173.17L254.155 173.29L254.177 168.438Z" fill="#45B467"/>
<path opacity="0.1" d="M254.177 168.438L227.738 168.318L227.716 173.17L254.155 173.29L254.177 168.438Z" fill="black"/>
<path d="M331.684 198.23C331.892 198.209 332.096 198.16 332.291 198.086C332.575 197.975 332.823 197.785 333.005 197.54C333.187 197.294 333.295 197.003 333.319 196.698C333.319 195.063 333.319 192.679 333.319 189.615C333.319 188.083 333.319 186.367 333.319 184.475C333.319 184.012 333.319 183.529 333.319 183.046C333.386 182.577 333.284 182.1 333.031 181.699C332.89 181.507 332.705 181.351 332.493 181.242C332.281 181.133 332.046 181.075 331.808 181.072H330.204H315.35L229.368 180.754C229.148 180.75 228.93 180.799 228.733 180.898C228.536 180.996 228.366 181.141 228.237 181.319C227.989 181.721 227.894 182.199 227.97 182.666C227.97 183.694 227.97 184.722 227.97 185.75C227.97 187.806 227.97 189.862 227.97 191.918C227.97 192.946 227.97 193.974 227.97 195.002C227.927 195.481 227.927 195.962 227.97 196.441C228.024 196.646 228.124 196.836 228.263 196.997C228.402 197.157 228.576 197.284 228.771 197.366C228.974 197.447 229.191 197.485 229.409 197.479H234.641L257.473 197.603L296.126 197.839L322.186 198.045L329.269 198.127H331.109C331.53 198.127 331.736 198.127 331.736 198.127H331.109H329.269H322.186H296.126L257.473 198.004L234.641 197.911H229.409C229.121 197.923 228.834 197.874 228.566 197.767C228.295 197.652 228.054 197.476 227.862 197.253C227.67 197.03 227.531 196.767 227.456 196.482C227.396 196.212 227.375 195.935 227.394 195.66V194.899C227.394 193.871 227.394 192.843 227.394 191.815C227.394 189.759 227.394 187.703 227.394 185.647C227.394 184.619 227.394 183.591 227.394 182.563C227.374 182.289 227.374 182.014 227.394 181.741C227.432 181.438 227.549 181.151 227.733 180.908C227.91 180.66 228.145 180.458 228.417 180.32C228.689 180.183 228.991 180.113 229.296 180.116L315.278 180.589L330.132 180.692H331.736C332.018 180.692 332.297 180.761 332.547 180.891C332.798 181.022 333.013 181.211 333.175 181.442C333.465 181.889 333.582 182.427 333.504 182.954C333.504 183.437 333.504 183.92 333.504 184.383C333.504 186.254 333.504 187.97 333.504 189.523C333.504 192.607 333.432 194.971 333.411 196.616C333.386 196.932 333.271 197.234 333.08 197.488C332.889 197.741 332.629 197.934 332.332 198.045C332.138 198.165 331.913 198.229 331.684 198.23Z" fill="#E0E0E0"/>
<path d="M284.037 185.914H235.679V190.448H284.037V185.914Z" fill="#45B467"/>
<path opacity="0.2" d="M284.037 185.914H235.679V190.448H284.037V185.914Z" fill="white"/>
<path d="M253.997 212.703L227.557 212.583L227.535 217.435L253.975 217.555L253.997 212.703Z" fill="#45B467"/>
<path opacity="0.1" d="M253.997 212.703L227.557 212.583L227.535 217.435L253.975 217.555L253.997 212.703Z" fill="black"/>
<path d="M331.016 242.495C331.224 242.47 331.43 242.432 331.633 242.382C331.92 242.291 332.184 242.139 332.408 241.937C332.631 241.735 332.809 241.487 332.928 241.21C333.09 240.795 333.153 240.348 333.113 239.905C333.113 239.411 333.113 238.877 333.113 238.281C333.113 237.088 333.113 235.731 333.113 234.169V227.641C333.162 227.168 333.058 226.692 332.815 226.284C332.562 225.865 332.163 225.554 331.695 225.41C331.183 225.319 330.661 225.291 330.142 225.328H315.349L229.666 225.009C229.205 225.01 228.76 225.179 228.414 225.483C228.068 225.787 227.844 226.207 227.784 226.664C227.784 227.641 227.784 228.72 227.784 229.748C227.784 231.804 227.784 233.86 227.784 235.916C227.784 236.944 227.784 237.972 227.784 239C227.746 239.481 227.767 239.964 227.846 240.439C227.974 240.856 228.239 241.218 228.597 241.467C228.976 241.708 229.422 241.823 229.871 241.796H231.3H234.271L257.021 241.909L295.54 242.146L321.507 242.351L328.57 242.434H330.41H331.026H330.41H328.57H321.507H295.54L257 242.393L234.251 242.31H229.779C229.223 242.343 228.671 242.195 228.206 241.889C227.738 241.565 227.397 241.089 227.24 240.542C227.147 240.02 227.12 239.488 227.157 238.959C227.157 237.931 227.157 236.903 227.157 235.875C227.157 233.819 227.157 231.763 227.157 229.707C227.157 228.679 227.157 227.651 227.157 226.623C227.232 226.035 227.519 225.495 227.964 225.103C228.408 224.712 228.981 224.495 229.573 224.495L315.257 224.968L330.05 225.081C330.601 225.047 331.154 225.085 331.695 225.194C332.229 225.369 332.679 225.735 332.959 226.222C333.225 226.675 333.34 227.201 333.288 227.723C333.288 228.206 333.288 228.679 333.288 229.152C333.288 231.013 333.288 232.719 333.288 234.292C333.288 235.865 333.288 237.191 333.288 238.404C333.288 238.99 333.288 239.535 333.288 240.038C333.325 240.498 333.251 240.96 333.072 241.385C332.939 241.669 332.746 241.92 332.506 242.123C332.267 242.325 331.986 242.473 331.684 242.557C331.46 242.576 331.234 242.555 331.016 242.495Z" fill="#E0E0E0"/>
<path d="M253.798 258.89L227.358 258.77L227.336 263.622L253.776 263.742L253.798 258.89Z" fill="#45B467"/>
<path opacity="0.1" d="M253.798 258.89L227.358 258.77L227.336 263.622L253.776 263.742L253.798 258.89Z" fill="black"/>
<path d="M330.811 288.662C331.018 288.638 331.224 288.6 331.427 288.549C331.713 288.458 331.977 288.308 332.2 288.108C332.423 287.907 332.601 287.662 332.723 287.388C332.884 286.972 332.947 286.526 332.908 286.082C332.908 285.578 332.908 285.054 332.908 284.447C332.908 283.265 332.908 281.898 332.908 280.335V273.808C332.957 273.335 332.852 272.859 332.61 272.451C332.35 272.039 331.953 271.733 331.489 271.587C330.977 271.492 330.456 271.461 329.937 271.495H315.144L229.46 271.176C228.999 271.177 228.554 271.345 228.208 271.65C227.862 271.954 227.639 272.374 227.579 272.831C227.579 273.859 227.579 274.887 227.579 275.915C227.579 277.971 227.579 280.027 227.579 282.083C227.579 283.111 227.579 284.139 227.579 285.167C227.541 285.644 227.561 286.124 227.641 286.596C227.764 287.015 228.029 287.379 228.391 287.624C228.768 287.87 229.216 287.986 229.666 287.953H234.137L256.887 288.076L295.406 288.313L321.374 288.518L328.436 288.601H330.276C330.687 288.601 330.893 288.601 330.893 288.601C330.893 288.601 330.687 288.601 330.276 288.601H328.436H321.374H295.406L256.887 288.487L234.137 288.395H229.666C229.109 288.433 228.556 288.284 228.093 287.973C227.625 287.649 227.284 287.174 227.127 286.627C227.034 286.104 227.007 285.573 227.044 285.044C227.044 284.016 227.044 282.988 227.044 281.96C227.044 279.904 227.044 277.848 227.044 275.792C227.044 274.764 227.044 273.736 227.044 272.656C227.117 272.069 227.402 271.529 227.845 271.137C228.288 270.745 228.858 270.529 229.45 270.528L315.134 271.001L329.927 271.114C330.477 271.08 331.03 271.118 331.571 271.227C332.105 271.402 332.556 271.768 332.836 272.255C333.102 272.708 333.217 273.234 333.165 273.756C333.165 274.239 333.165 274.723 333.165 275.185C333.165 277.046 333.165 278.752 333.165 280.325C333.165 281.898 333.165 283.224 333.165 284.437C333.165 285.023 333.165 285.568 333.165 286.072C333.204 286.531 333.13 286.994 332.949 287.418C332.815 287.702 332.622 287.954 332.383 288.156C332.143 288.358 331.863 288.506 331.561 288.59C331.32 288.673 331.063 288.697 330.811 288.662Z" fill="#E0E0E0"/>
<path d="M283.004 231.462L234.648 231.242L234.627 235.776L282.984 235.995L283.004 231.462Z" fill="#45B467"/>
<path opacity="0.2" d="M283.004 231.462L234.648 231.242L234.627 235.776L282.984 235.995L283.004 231.462Z" fill="white"/>
<path d="M239.02 280.275C238.99 280.688 238.839 281.084 238.586 281.412C238.333 281.741 237.989 281.987 237.597 282.122C237.205 282.257 236.782 282.274 236.38 282.17C235.979 282.067 235.616 281.848 235.338 281.541C235.06 281.233 234.878 280.851 234.815 280.441C234.752 280.031 234.811 279.612 234.984 279.235C235.157 278.858 235.437 278.541 235.789 278.322C236.141 278.103 236.55 277.992 236.964 278.003C237.537 278.035 238.074 278.291 238.459 278.716C238.844 279.142 239.046 279.702 239.02 280.275Z" fill="#45B467"/>
<path d="M245.569 280.305C245.589 280.595 245.549 280.886 245.452 281.16C245.355 281.434 245.203 281.685 245.005 281.897C244.807 282.109 244.567 282.279 244.301 282.395C244.034 282.511 243.747 282.57 243.456 282.57C243.166 282.57 242.878 282.511 242.612 282.395C242.346 282.279 242.106 282.109 241.908 281.897C241.709 281.685 241.557 281.434 241.46 281.16C241.363 280.886 241.324 280.595 241.344 280.305C241.324 280.015 241.363 279.725 241.46 279.451C241.557 279.177 241.709 278.926 241.908 278.713C242.106 278.501 242.346 278.331 242.612 278.216C242.878 278.1 243.166 278.04 243.456 278.04C243.747 278.04 244.034 278.1 244.301 278.216C244.567 278.331 244.807 278.501 245.005 278.713C245.203 278.926 245.355 279.177 245.452 279.451C245.549 279.725 245.589 280.015 245.569 280.305Z" fill="#45B467"/>
<path d="M252.127 280.336C252.097 280.75 251.946 281.145 251.693 281.474C251.44 281.802 251.096 282.049 250.704 282.184C250.312 282.319 249.889 282.335 249.487 282.232C249.086 282.129 248.723 281.91 248.445 281.602C248.167 281.295 247.985 280.912 247.922 280.503C247.859 280.093 247.918 279.673 248.091 279.297C248.264 278.92 248.544 278.602 248.896 278.383C249.248 278.164 249.657 278.053 250.071 278.064C250.643 278.099 251.179 278.356 251.563 278.781C251.947 279.205 252.15 279.764 252.127 280.336Z" fill="#45B467"/>
<path d="M258.676 280.366C258.645 280.78 258.494 281.175 258.241 281.504C257.988 281.832 257.644 282.079 257.252 282.214C256.86 282.349 256.437 282.366 256.036 282.262C255.634 282.159 255.272 281.94 254.994 281.632C254.715 281.325 254.534 280.943 254.471 280.533C254.408 280.123 254.466 279.704 254.64 279.327C254.813 278.95 255.093 278.633 255.445 278.414C255.797 278.194 256.205 278.084 256.62 278.094C257.191 278.129 257.727 278.386 258.111 278.811C258.496 279.236 258.698 279.794 258.676 280.366Z" fill="#45B467"/>
<path d="M265.224 280.387C265.196 280.801 265.046 281.198 264.794 281.528C264.542 281.858 264.199 282.106 263.807 282.243C263.415 282.379 262.991 282.397 262.589 282.295C262.187 282.193 261.824 281.974 261.544 281.667C261.265 281.36 261.082 280.978 261.019 280.567C260.955 280.157 261.013 279.737 261.186 279.36C261.359 278.983 261.639 278.665 261.992 278.445C262.344 278.226 262.753 278.115 263.168 278.126C263.738 278.16 264.272 278.416 264.656 278.839C265.04 279.261 265.244 279.817 265.224 280.387Z" fill="#45B467"/>
<path d="M271.783 280.418C271.755 280.83 271.607 281.225 271.357 281.554C271.108 281.883 270.767 282.132 270.378 282.27C269.989 282.408 269.568 282.429 269.167 282.331C268.766 282.233 268.402 282.02 268.121 281.718C267.839 281.416 267.652 281.038 267.583 280.631C267.513 280.224 267.564 279.805 267.729 279.427C267.894 279.048 268.167 278.726 268.512 278.501C268.858 278.275 269.262 278.155 269.675 278.156C270.254 278.178 270.801 278.428 271.196 278.852C271.591 279.276 271.802 279.839 271.783 280.418Z" fill="#45B467"/>
<path d="M278.331 280.449C278.351 280.739 278.312 281.029 278.215 281.303C278.118 281.577 277.965 281.828 277.767 282.041C277.569 282.253 277.329 282.422 277.063 282.538C276.796 282.654 276.509 282.714 276.219 282.714C275.928 282.714 275.641 282.654 275.374 282.538C275.108 282.422 274.868 282.253 274.67 282.041C274.472 281.828 274.319 281.577 274.222 281.303C274.125 281.029 274.086 280.739 274.106 280.449C274.086 280.159 274.125 279.868 274.222 279.594C274.319 279.32 274.472 279.069 274.67 278.857C274.868 278.644 275.108 278.475 275.374 278.359C275.641 278.243 275.928 278.184 276.219 278.184C276.509 278.184 276.796 278.243 277.063 278.359C277.329 278.475 277.569 278.644 277.767 278.857C277.965 279.069 278.118 279.32 278.215 279.594C278.312 279.868 278.351 280.159 278.331 280.449Z" fill="#45B467"/>
<path d="M284.879 280.479C284.851 280.891 284.703 281.286 284.454 281.615C284.204 281.944 283.864 282.193 283.475 282.331C283.086 282.469 282.665 282.491 282.264 282.393C281.862 282.294 281.499 282.081 281.217 281.779C280.936 281.477 280.749 281.099 280.679 280.692C280.61 280.285 280.661 279.867 280.826 279.488C280.991 279.11 281.263 278.788 281.609 278.562C281.955 278.336 282.359 278.217 282.772 278.218C283.351 278.239 283.898 278.489 284.293 278.913C284.688 279.337 284.899 279.9 284.879 280.479Z" fill="#45B467"/>
<path d="M291.428 280.51C291.4 280.925 291.25 281.321 290.998 281.651C290.746 281.981 290.403 282.229 290.011 282.366C289.619 282.502 289.195 282.52 288.793 282.418C288.391 282.316 288.027 282.097 287.748 281.79C287.469 281.483 287.286 281.101 287.223 280.69C287.159 280.28 287.217 279.86 287.39 279.483C287.563 279.106 287.843 278.788 288.196 278.568C288.548 278.349 288.957 278.238 289.372 278.249C289.942 278.283 290.476 278.539 290.86 278.962C291.244 279.384 291.448 279.94 291.428 280.51Z" fill="#45B467"/>
<g opacity="0.2">
<path d="M239.02 280.275C238.99 280.688 238.839 281.084 238.586 281.412C238.333 281.741 237.989 281.987 237.597 282.122C237.205 282.257 236.782 282.274 236.38 282.17C235.979 282.067 235.616 281.848 235.338 281.541C235.06 281.233 234.878 280.851 234.815 280.441C234.752 280.031 234.811 279.612 234.984 279.235C235.157 278.858 235.437 278.541 235.789 278.322C236.141 278.103 236.55 277.992 236.964 278.003C237.537 278.035 238.074 278.291 238.459 278.716C238.844 279.142 239.046 279.702 239.02 280.275Z" fill="white"/>
<path d="M245.569 280.305C245.589 280.595 245.549 280.886 245.452 281.16C245.355 281.434 245.203 281.685 245.005 281.897C244.807 282.109 244.567 282.279 244.301 282.395C244.034 282.511 243.747 282.57 243.456 282.57C243.166 282.57 242.878 282.511 242.612 282.395C242.346 282.279 242.106 282.109 241.908 281.897C241.709 281.685 241.557 281.434 241.46 281.16C241.363 280.886 241.324 280.595 241.344 280.305C241.324 280.015 241.363 279.725 241.46 279.451C241.557 279.177 241.709 278.926 241.908 278.713C242.106 278.501 242.346 278.331 242.612 278.216C242.878 278.1 243.166 278.04 243.456 278.04C243.747 278.04 244.034 278.1 244.301 278.216C244.567 278.331 244.807 278.501 245.005 278.713C245.203 278.926 245.355 279.177 245.452 279.451C245.549 279.725 245.589 280.015 245.569 280.305Z" fill="white"/>
<path d="M252.127 280.336C252.097 280.75 251.946 281.145 251.693 281.474C251.44 281.802 251.096 282.049 250.704 282.184C250.312 282.319 249.889 282.335 249.487 282.232C249.086 282.129 248.723 281.91 248.445 281.602C248.167 281.295 247.985 280.912 247.922 280.503C247.859 280.093 247.918 279.673 248.091 279.297C248.264 278.92 248.544 278.602 248.896 278.383C249.248 278.164 249.657 278.053 250.071 278.064C250.643 278.099 251.179 278.356 251.563 278.781C251.947 279.205 252.15 279.764 252.127 280.336Z" fill="white"/>
<path d="M258.676 280.367C258.645 280.781 258.494 281.176 258.241 281.505C257.988 281.833 257.644 282.08 257.252 282.215C256.86 282.35 256.437 282.367 256.036 282.263C255.634 282.16 255.272 281.941 254.994 281.633C254.715 281.326 254.534 280.944 254.471 280.534C254.408 280.124 254.466 279.705 254.64 279.328C254.813 278.951 255.093 278.634 255.445 278.415C255.797 278.195 256.205 278.085 256.62 278.095C257.191 278.13 257.727 278.387 258.111 278.812C258.496 279.237 258.698 279.795 258.676 280.367Z" fill="white"/>
<path d="M265.224 280.387C265.196 280.801 265.046 281.198 264.794 281.528C264.542 281.858 264.199 282.106 263.807 282.243C263.415 282.379 262.991 282.397 262.589 282.295C262.187 282.193 261.824 281.974 261.544 281.667C261.265 281.36 261.082 280.978 261.019 280.567C260.955 280.157 261.013 279.737 261.186 279.36C261.359 278.983 261.639 278.665 261.992 278.445C262.344 278.226 262.753 278.115 263.168 278.126C263.738 278.16 264.272 278.416 264.656 278.839C265.04 279.261 265.244 279.817 265.224 280.387Z" fill="white"/>
<path d="M271.783 280.419C271.755 280.831 271.607 281.226 271.357 281.555C271.108 281.884 270.768 282.133 270.379 282.271C269.989 282.409 269.568 282.43 269.167 282.332C268.766 282.234 268.402 282.021 268.121 281.719C267.839 281.416 267.652 281.039 267.583 280.632C267.513 280.225 267.564 279.806 267.729 279.428C267.895 279.049 268.167 278.727 268.513 278.502C268.858 278.276 269.263 278.156 269.676 278.157C270.255 278.179 270.801 278.429 271.196 278.853C271.592 279.277 271.802 279.84 271.783 280.419Z" fill="white"/>
<path d="M278.331 280.45C278.352 280.74 278.312 281.03 278.215 281.304C278.118 281.578 277.966 281.829 277.767 282.042C277.569 282.254 277.33 282.423 277.063 282.539C276.797 282.655 276.509 282.715 276.219 282.715C275.928 282.715 275.641 282.655 275.374 282.539C275.108 282.423 274.868 282.254 274.67 282.042C274.472 281.829 274.32 281.578 274.223 281.304C274.126 281.03 274.086 280.74 274.106 280.45C274.086 280.16 274.126 279.869 274.223 279.595C274.32 279.321 274.472 279.07 274.67 278.858C274.868 278.645 275.108 278.476 275.374 278.36C275.641 278.244 275.928 278.185 276.219 278.185C276.509 278.185 276.797 278.244 277.063 278.36C277.33 278.476 277.569 278.645 277.767 278.858C277.966 279.07 278.118 279.321 278.215 279.595C278.312 279.869 278.352 280.16 278.331 280.45Z" fill="white"/>
<path d="M284.88 280.48C284.852 280.892 284.704 281.287 284.454 281.616C284.205 281.945 283.864 282.194 283.475 282.332C283.086 282.47 282.665 282.492 282.264 282.394C281.863 282.295 281.499 282.082 281.218 281.78C280.936 281.478 280.749 281.1 280.679 280.693C280.61 280.286 280.661 279.868 280.826 279.489C280.991 279.111 281.263 278.789 281.609 278.563C281.955 278.337 282.359 278.218 282.772 278.219C283.351 278.24 283.898 278.49 284.293 278.914C284.688 279.338 284.899 279.901 284.88 280.48Z" fill="white"/>
<path d="M291.428 280.511C291.4 280.925 291.25 281.322 290.998 281.652C290.746 281.982 290.403 282.23 290.011 282.367C289.619 282.503 289.195 282.521 288.793 282.419C288.391 282.317 288.027 282.098 287.748 281.791C287.469 281.484 287.286 281.102 287.223 280.691C287.159 280.281 287.217 279.861 287.39 279.484C287.563 279.107 287.843 278.789 288.196 278.569C288.548 278.35 288.957 278.239 289.372 278.25C289.942 278.284 290.476 278.54 290.86 278.962C291.244 279.385 291.448 279.941 291.428 280.511Z" fill="white"/>
</g>
<path d="M282.124 132.109C282.838 131.794 283.444 131.277 283.867 130.621C284.289 129.965 284.509 129.199 284.499 128.418C284.526 127.911 284.449 127.404 284.273 126.927C284.097 126.451 283.826 126.015 283.477 125.647C283.127 125.278 282.706 124.985 282.239 124.784C281.773 124.584 281.27 124.48 280.762 124.48C280.254 124.48 279.752 124.584 279.285 124.784C278.818 124.985 278.397 125.278 278.048 125.647C277.698 126.015 277.427 126.451 277.252 126.927C277.076 127.404 276.999 127.911 277.026 128.418C277.01 129.207 277.228 129.982 277.652 130.646C278.077 131.31 278.689 131.833 279.41 132.15C273.654 133.014 273.911 139.264 273.911 139.264L287.521 139.326C287.521 139.326 287.84 132.962 282.124 132.109Z" fill="#45B467"/>
<path opacity="0.1" d="M282.124 132.109C282.838 131.794 283.444 131.277 283.867 130.621C284.289 129.965 284.509 129.199 284.499 128.418C284.526 127.911 284.449 127.404 284.273 126.927C284.097 126.451 283.826 126.015 283.477 125.647C283.127 125.278 282.706 124.985 282.239 124.784C281.773 124.584 281.27 124.48 280.762 124.48C280.254 124.48 279.752 124.584 279.285 124.784C278.818 124.985 278.397 125.278 278.048 125.647C277.698 126.015 277.427 126.451 277.252 126.927C277.076 127.404 276.999 127.911 277.026 128.418C277.01 129.207 277.228 129.982 277.652 130.646C278.077 131.31 278.689 131.833 279.41 132.15C273.654 133.014 273.911 139.264 273.911 139.264L287.521 139.326C287.521 139.326 287.84 132.962 282.124 132.109Z" fill="black"/>
<path d="M304.241 143.356L255.73 143.136L255.704 148.934L304.215 149.154L304.241 143.356Z" fill="#45B467"/>
<path opacity="0.2" d="M304.241 143.356L255.73 143.136L255.704 148.934L304.215 149.154L304.241 143.356Z" fill="white"/>
<path d="M125.899 173.403H125.416L124.018 173.506C123.261 173.552 122.509 173.651 121.766 173.804C121.286 173.872 120.809 173.964 120.338 174.082L118.744 174.524C116.032 175.356 113.473 176.623 111.168 178.276C108.122 180.487 105.578 183.318 103.705 186.582C102.603 188.464 101.727 190.469 101.093 192.555C100.428 194.823 100.044 197.163 99.9523 199.525C99.891 200.765 99.9116 202.008 100.014 203.246C100.014 203.873 100.189 204.5 100.271 205.138C100.34 205.78 100.46 206.416 100.631 207.04C101.555 211.165 103.431 215.017 106.108 218.288C108.785 221.56 112.19 224.161 116.051 225.883C118.845 227.088 121.84 227.761 124.881 227.867C128.023 228.04 131.167 227.589 134.133 226.541L135.038 226.201H135.161L135.264 226.263L148.227 232.842L147.847 233.171C146.459 228.874 145.123 224.711 143.827 220.712V220.558L143.94 220.445C147.085 217.277 149.42 213.398 150.746 209.137C151.947 205.241 152.298 201.132 151.774 197.089C151.308 193.495 150.152 190.026 148.371 186.87C146.836 184.16 144.855 181.727 142.512 179.674C140.578 178.049 138.439 176.687 136.148 175.624C134.415 174.876 132.61 174.308 130.761 173.928L128.705 173.588L127.215 173.475L126.31 173.414H126.002C126.104 173.402 126.208 173.402 126.31 173.414H127.225L128.716 173.475L130.772 173.773C132.643 174.126 134.473 174.674 136.23 175.408C138.56 176.459 140.738 177.818 142.707 179.448C145.093 181.492 147.116 183.925 148.69 186.644C150.522 189.833 151.713 193.35 152.195 196.996C152.763 201.102 152.436 205.282 151.239 209.25C149.904 213.6 147.534 217.562 144.331 220.794L144.393 220.527C145.688 224.526 147.035 228.689 148.433 232.976L148.628 233.603L148.042 233.305L135.079 226.736H135.305L134.38 227.075C131.357 228.139 128.154 228.6 124.953 228.432C121.846 228.314 118.789 227.617 115.938 226.376C110.499 224.047 105.975 219.999 103.057 214.852C101.714 212.475 100.734 209.911 100.148 207.245C99.9871 206.606 99.867 205.957 99.7878 205.302C99.7056 204.655 99.5719 204.017 99.5411 203.38C99.2629 199.722 99.6495 196.044 100.682 192.524C101.331 190.409 102.232 188.38 103.365 186.48C105.284 183.185 107.88 180.337 110.983 178.122C113.326 176.465 115.928 175.207 118.682 174.401L120.296 173.989C120.771 173.879 121.252 173.793 121.736 173.732C122.486 173.593 123.245 173.511 124.008 173.486L125.416 173.434C125.576 173.413 125.737 173.402 125.899 173.403Z" fill="#45B467"/>
<path d="M131.759 197.376H129.857L125.745 191.599V187.806C125.745 187.806 122.805 187.621 123.154 192.586C123.504 197.551 123.154 196.287 123.154 196.287C123.154 196.287 116.914 196.287 116.4 196.852C115.886 197.417 115.856 203.441 115.784 206.803C115.744 207.613 115.977 208.414 116.444 209.077C116.912 209.74 117.587 210.228 118.364 210.463C118.582 210.523 118.806 210.554 119.032 210.555C120.595 210.555 128.541 209.291 128.541 209.291H131.82L131.759 197.376Z" fill="#45B467"/>
<path d="M137.197 196.358L136.025 209.352H132.776V196.626L137.197 196.358Z" fill="#45B467"/>
<path d="M175.942 460.894V452.104L160.183 451.991L160.049 465.283L161.026 465.355C165.374 465.633 183.148 466.044 186.068 465.139C189.316 464.132 175.942 460.894 175.942 460.894Z" fill="#45B467"/>
<path d="M186.438 464.317C186.438 464.461 180.537 464.584 173.269 464.584C166.001 464.584 160.101 464.461 160.101 464.317C160.101 464.173 166.001 464.05 173.269 464.05C180.537 464.05 186.438 464.173 186.438 464.317Z" fill="#263238"/>
<path d="M176.22 462.693C176.086 462.621 176.22 462.158 176.538 461.665C176.857 461.172 177.289 460.966 177.392 461.069C177.494 461.172 177.279 461.562 176.97 461.984C176.662 462.405 176.353 462.765 176.22 462.693Z" fill="#263238"/>
<path d="M177.227 463.268C177.083 463.268 177.155 462.693 177.464 462.148C177.772 461.603 178.183 461.274 178.296 461.356C178.409 461.439 178.224 461.901 177.937 462.384C177.649 462.867 177.361 463.32 177.227 463.268Z" fill="#263238"/>
<path d="M164.85 464.276C164.788 464.276 164.552 464.091 164.213 463.7C163.799 463.198 163.337 462.737 162.835 462.323C162.341 461.928 161.753 461.67 161.129 461.572C160.646 461.511 160.337 461.572 160.306 461.511C160.276 461.449 160.574 461.233 161.139 461.192C161.885 461.176 162.613 461.424 163.195 461.891C163.74 462.336 164.2 462.875 164.552 463.485C164.788 463.937 164.912 464.235 164.85 464.276Z" fill="#263238"/>
<path d="M176.271 461.038C176.343 461.161 176.076 461.47 175.624 461.634C175.171 461.799 174.77 461.737 174.75 461.634C174.729 461.532 175.048 461.316 175.438 461.172C175.829 461.028 176.189 460.915 176.271 461.038Z" fill="#263238"/>
<path d="M176.025 460.184C176.025 460.339 175.613 460.462 175.079 460.472C174.544 460.482 174.123 460.359 174.133 460.215C174.143 460.071 174.565 459.938 175.079 459.927C175.593 459.917 176.004 460.04 176.025 460.184Z" fill="#263238"/>
<path d="M214.749 460.894V452.104L198.99 451.991L198.856 465.15L199.833 465.222C204.181 465.499 221.966 466.044 224.875 465.139C228.124 464.132 214.749 460.894 214.749 460.894Z" fill="#45B467"/>
<path d="M225.245 464.338C225.245 464.482 219.355 464.605 212.076 464.605C204.798 464.605 198.918 464.482 198.918 464.338C198.918 464.194 204.808 464.07 212.076 464.07C219.344 464.07 225.245 464.194 225.245 464.338Z" fill="#263238"/>
<path d="M215.027 462.693C214.903 462.621 215.027 462.158 215.346 461.665C215.664 461.172 216.096 460.966 216.199 461.069C216.302 461.172 216.086 461.562 215.777 461.984C215.469 462.405 215.16 462.765 215.027 462.693Z" fill="#263238"/>
<path d="M216.034 463.268C215.901 463.268 215.962 462.693 216.281 462.148C216.6 461.603 217.001 461.274 217.114 461.356C217.227 461.439 217.031 461.901 216.744 462.384C216.456 462.867 216.178 463.32 216.034 463.268Z" fill="#263238"/>
<path d="M203.657 464.276C203.595 464.276 203.369 464.091 203.02 463.7C202.606 463.198 202.144 462.737 201.642 462.323C201.148 461.928 200.56 461.67 199.936 461.572C199.463 461.511 199.144 461.572 199.113 461.511C199.082 461.449 199.381 461.233 199.946 461.192C200.692 461.176 201.42 461.424 202.002 461.891C202.55 462.333 203.01 462.873 203.359 463.485C203.595 463.937 203.719 464.235 203.657 464.276Z" fill="#263238"/>
<path d="M215.078 461.038C215.15 461.161 214.883 461.47 214.431 461.634C213.978 461.799 213.577 461.737 213.557 461.634C213.536 461.532 213.855 461.316 214.246 461.172C214.636 461.028 214.996 460.915 215.078 461.038Z" fill="#263238"/>
<path d="M214.852 460.184C214.852 460.339 214.441 460.462 213.906 460.472C213.372 460.482 212.96 460.359 212.971 460.215C212.981 460.071 213.392 459.938 213.906 459.927C214.42 459.917 214.852 460.04 214.852 460.184Z" fill="#263238"/>
<path d="M272.811 199.885C272.399 199.463 271.382 199.669 271.382 199.669C271.484 199.077 271.484 198.472 271.382 197.88C271.197 197.305 269.901 197.418 269.901 197.418C269.842 196.933 269.842 196.443 269.901 195.958C269.912 195.85 269.889 195.742 269.835 195.649C269.782 195.555 269.701 195.48 269.603 195.434C268.99 195.184 268.332 195.065 267.671 195.084C266.879 194.519 270.086 190.026 271.279 188.587C272.471 187.148 272.256 186.027 271.197 186.027C270.467 186.027 266.725 190.345 265.574 191.794C264.422 193.244 261.369 197.274 261.266 194.056C261.163 190.838 259.868 188.412 259.056 188.001C258.244 187.59 257.38 188.556 257.822 189.451C258.211 190.467 258.453 191.533 258.542 192.617C258.654 193.48 258.615 194.357 258.429 195.207C258.088 196.79 257.624 198.344 257.041 199.854H256.959C256.959 199.854 234.528 221.37 232.904 222.902C231.454 224.279 202.3 221.267 196.451 220.65C194.463 220.36 192.456 220.222 190.447 220.239C187.908 220.352 187.456 220.712 184.927 220.743C178.54 220.814 172.169 221.374 165.868 222.419C163.015 222.904 160.35 224.163 158.163 226.059C155.977 227.955 154.354 230.416 153.47 233.171C147.58 251.573 134.236 295.129 131.882 319.595C130.103 322.821 128.497 326.14 127.071 329.536C125.416 334.039 125.817 334.193 126.372 334.296C127.873 334.573 129.579 326.493 130.217 328.446C130.854 330.4 126.979 338.079 128.551 338.305C130.607 338.593 132.242 330.081 132.437 329.402C132.633 328.724 133.65 328.94 133.465 329.577C133.167 330.482 130.278 340.073 132.293 340.382C133.404 340.546 133.527 338.521 133.527 338.521C133.527 338.521 135.583 329.341 136.518 329.526C137.454 329.711 136.457 335.128 135.984 336.938C135.511 338.747 136.169 339.662 137.135 339.22C137.793 338.912 139.366 333.412 139.798 331.623C140.23 329.834 141.309 324.879 142.758 327.747C144.208 330.616 146.408 332.281 147.312 332.322C147.516 332.299 147.708 332.215 147.864 332.081C148.02 331.947 148.132 331.77 148.186 331.572C148.24 331.374 148.234 331.165 148.168 330.97C148.102 330.776 147.98 330.606 147.816 330.482C147.038 329.722 146.37 328.857 145.832 327.912C145.353 327.176 145.005 326.362 144.804 325.506C144.39 323.801 144.149 322.058 144.085 320.305L143.92 319.277C146.223 307.876 152.853 274.415 162.424 253.043L166.351 261.123L168.057 267.106L157.592 292.939L202.228 292.353L195.567 266.715L203.657 239.987C212.405 240.182 234.867 240.511 238.609 238.815C243.317 236.759 267.671 206.001 267.671 206.001C269.258 204.768 270.778 203.45 272.225 202.054C272.225 202.054 273.705 200.81 272.811 199.885Z" fill="#FFBE9D"/>
<path d="M155.629 273.849C156.924 269.429 163.575 247.573 163.575 247.573C163.575 247.573 166.845 265.389 165.981 267.537C165.187 269.376 164.248 271.15 163.175 272.842C155.629 284.324 156.616 290.071 156.616 290.071L202.208 288.683C202.311 282.309 198.538 267.486 197.756 265.121C196.975 262.757 199.576 255.016 199.576 255.016C199.576 255.016 204.716 249.784 204.531 247.09C204.433 244.671 204.134 242.264 203.637 239.894L231.393 240.922L230.519 222.11L190.653 218.121C189.265 222.038 176.713 220.115 176.713 220.115C163.164 220.568 162.321 223.056 156.688 227.435C151.054 231.814 141.73 269.398 141.73 269.398L155.629 273.849Z" fill="#45B467"/>
<path d="M182.583 269.398C181.793 269.539 180.988 269.581 180.188 269.522C178.697 269.522 176.652 269.419 174.4 269.193C172.149 268.966 170.114 268.648 168.664 268.36C167.865 268.257 167.081 268.057 166.331 267.764C167.134 267.764 167.936 267.84 168.726 267.99C170.186 268.175 172.211 268.432 174.452 268.658C176.693 268.884 178.728 269.038 180.198 269.141C181 269.151 181.798 269.237 182.583 269.398Z" fill="#263238"/>
<path d="M185.708 265.522C184.918 265.91 184.082 266.196 183.22 266.376C179.119 267.453 174.888 267.955 170.648 267.866C169.771 267.895 168.893 267.812 168.037 267.62C168.903 267.51 169.775 267.466 170.648 267.486C172.262 267.435 174.482 267.321 176.929 267.034C179.376 266.746 181.555 266.335 183.097 266.006C183.954 265.777 184.827 265.615 185.708 265.522Z" fill="#263238"/>
<path d="M201.046 248.231C201.025 249.015 200.918 249.794 200.727 250.555C200.46 251.984 200.049 253.937 199.525 256.075C199 258.213 198.497 260.187 198.044 261.523C197.862 262.288 197.593 263.03 197.242 263.734C197.3 262.952 197.445 262.18 197.674 261.431C198.065 259.827 198.507 257.977 199 255.952C199.494 253.927 199.967 252.076 200.357 250.472C200.496 249.701 200.728 248.948 201.046 248.231Z" fill="#263238"/>
<path d="M156.112 271.228C153.734 270.861 151.387 270.314 149.091 269.593C146.745 269.045 144.443 268.323 142.203 267.435C144.58 267.808 146.927 268.354 149.225 269.069C151.571 269.616 153.873 270.337 156.112 271.228Z" fill="#263238"/>
<path d="M204.13 239.668C203.742 239.735 203.346 239.735 202.958 239.668C201.884 239.558 200.83 239.305 199.823 238.917C198.141 238.286 196.61 237.309 195.328 236.05C194.046 234.791 193.042 233.278 192.38 231.608C191.648 229.771 191.335 227.794 191.465 225.821C191.511 224.193 191.997 222.609 192.873 221.236C193.489 220.311 194.409 219.631 195.474 219.313C195.759 219.235 196.053 219.197 196.348 219.2C196.553 219.2 196.656 219.2 196.656 219.2C196.656 219.2 196.225 219.2 195.536 219.478C194.559 219.839 193.73 220.515 193.182 221.4C191.784 223.6 191.393 227.62 192.884 231.372C193.577 233.141 194.663 234.73 196.06 236.018C197.204 237.073 198.523 237.922 199.956 238.527C201.302 239.059 202.701 239.441 204.13 239.668Z" fill="#263238"/>
<path d="M228.093 240.552C227.836 237.4 227.753 234.236 227.846 231.074C227.765 227.915 227.862 224.755 228.134 221.606C228.391 224.755 228.474 227.916 228.381 231.074C228.467 234.237 228.371 237.401 228.093 240.552Z" fill="#263238"/>
<path d="M190.386 219.273C190.499 216.98 190.735 214.39 190.735 214.39C190.735 214.39 196.41 213.762 196.749 207.903C197.088 202.043 196.749 188.525 196.749 188.525L186.469 183.262L175.058 192.236L176.816 221.534L187.281 222.202C188.081 222.224 188.857 221.928 189.439 221.379C190.021 220.83 190.361 220.072 190.386 219.273Z" fill="#FFBE9D"/>
<path d="M191.403 203.267C191.403 203.267 191.403 203.38 191.311 203.513C191.234 203.61 191.135 203.687 191.022 203.737C190.91 203.787 190.786 203.809 190.663 203.801C190.005 203.801 189.368 203.04 189.142 202.156C189.034 201.728 189.034 201.279 189.142 200.851C189.163 200.664 189.23 200.485 189.338 200.33C189.446 200.176 189.59 200.051 189.758 199.967C189.897 199.91 190.052 199.91 190.19 199.967C190.293 200.018 190.376 200.101 190.427 200.203C190.499 200.378 190.427 200.491 190.427 200.481C190.427 200.47 190.427 200.378 190.324 200.275C190.27 200.201 190.191 200.15 190.102 200.131C190.013 200.112 189.92 200.127 189.841 200.172C189.715 200.249 189.61 200.355 189.536 200.483C189.462 200.611 189.422 200.755 189.419 200.902C189.333 201.285 189.333 201.681 189.419 202.064C189.625 202.866 190.18 203.513 190.673 203.575C190.77 203.588 190.868 203.581 190.962 203.555C191.056 203.528 191.143 203.482 191.218 203.421C191.342 203.339 191.383 203.256 191.403 203.267Z" fill="#EB996E"/>
<path d="M200.275 185.359C199.483 182.666 196.615 181.329 194.004 180.589C190.026 179.458 185.729 178.965 181.843 180.394C177.957 181.823 173.29 184.331 173.29 188.618C170.998 188.433 169.682 190.437 168.777 192.925C168.199 194.441 167.852 196.035 167.749 197.654C167.461 203.267 165.888 211.018 162.249 215.13C160.193 217.422 157.346 219.006 156.174 221.863C155.146 224.341 155.68 227.281 154.724 229.789C153.871 231.999 151.99 233.572 150.612 235.495C149.209 237.675 148.383 240.177 148.212 242.765C148.041 245.353 148.531 247.941 149.636 250.288C150.748 252.574 152.314 254.61 154.239 256.271C156.164 257.932 158.406 259.184 160.831 259.951C165.632 261.412 170.753 261.462 175.582 260.095C179.207 259.228 182.588 257.552 185.472 255.191C188.423 252.782 190.449 249.426 191.208 245.692C191.938 241.498 190.766 237.232 189.892 233.058C187.158 219.869 187.939 219.18 191.393 206.937C191.475 206.721 191.516 206.495 191.578 206.279C191.64 206.063 191.671 205.96 191.712 205.796C191.81 205.312 191.862 204.82 191.866 204.326C191.361 204.513 190.814 204.553 190.288 204.44C189.761 204.327 189.278 204.066 188.895 203.688C188.511 203.285 188.243 202.786 188.12 202.243C187.997 201.7 188.023 201.134 188.196 200.604C188.439 200.025 188.8 199.504 189.257 199.074C189.714 198.643 190.256 198.314 190.848 198.106C191.989 197.633 193.213 197.387 194.333 196.862C196.708 195.732 198.353 193.388 199.473 190.931C200.394 189.228 200.679 187.253 200.275 185.359Z" fill="#263238"/>
<path d="M191.814 203.545C192.032 203.866 192.211 204.211 192.349 204.573C192.657 205.221 193.069 206.135 193.521 207.194L193.603 207.39H193.387L192.359 207.482C191.65 207.482 191.054 207.616 190.355 207.606C190.294 207.592 190.237 207.563 190.191 207.522C190.144 207.48 190.108 207.428 190.087 207.369C190.057 207.276 190.057 207.175 190.087 207.081C190.111 206.943 190.142 206.805 190.18 206.67L190.365 205.94C190.458 205.453 190.603 204.978 190.797 204.522C190.778 205.018 190.705 205.511 190.581 205.992L190.437 206.721C190.386 206.968 190.293 207.349 190.437 207.318C190.951 207.318 191.681 207.205 192.359 207.163L193.387 207.071L193.254 207.297C192.812 206.269 192.442 205.303 192.226 204.635C192.036 204.293 191.898 203.926 191.814 203.545Z" fill="#45B467"/>
<path d="M156.616 290.071L202.208 288.684L222.048 366.133L218.399 454.973H194.292L197.242 368.025L179.612 314.106L182.326 458.417L157.962 458.776L155.403 323.132C155.29 319.359 154.056 310.858 154.519 307.116L156.616 290.071Z" fill="#263238"/>
<path d="M185.677 315.205C184.931 315.252 184.182 315.208 183.447 315.072C182.069 314.907 180.188 314.62 178.122 314.208C176.055 313.797 174.205 313.324 172.868 312.944C172.154 312.787 171.463 312.538 170.812 312.204C170.813 312.05 174.164 312.851 178.276 313.684C182.388 314.517 185.698 315.051 185.677 315.205Z" fill="#455A64"/>
<path d="M218.152 450.1C218.152 450.244 212.693 450.368 205.96 450.368C199.226 450.368 193.757 450.244 193.757 450.1C193.757 449.956 199.216 449.833 205.96 449.833C212.703 449.833 218.152 449.946 218.152 450.1Z" fill="#455A64"/>
<path d="M182.11 454.664C182.11 454.818 176.806 454.931 170.268 454.931C163.73 454.931 158.435 454.818 158.435 454.664C158.435 454.51 163.74 454.396 170.268 454.396C176.795 454.396 182.11 454.52 182.11 454.664Z" fill="#455A64"/>
<path d="M178.964 454.294C178.82 454.294 178.183 422.765 177.535 383.876C176.888 344.987 176.507 313.438 176.641 313.438C176.775 313.438 177.433 344.956 178.07 383.866C178.707 422.776 179.119 454.294 178.964 454.294Z" fill="#455A64"/>
<path d="M214.914 450.1C214.903 449.96 214.903 449.819 214.914 449.679V448.445C214.914 447.335 214.996 445.741 215.058 443.716C215.202 439.604 215.407 433.631 215.664 426.312C216.219 411.591 217.001 391.298 217.854 368.898C217.854 368.682 217.854 368.477 217.854 368.292V368.364C212.457 346.776 207.574 327.182 204.027 313.006L199.915 296.239C199.442 294.276 199.083 292.744 198.826 291.675C198.702 291.171 198.62 290.781 198.548 290.482C198.508 290.349 198.484 290.211 198.476 290.071C198.529 290.201 198.571 290.335 198.599 290.472C198.682 290.76 198.784 291.151 198.928 291.644C199.206 292.672 199.607 294.235 200.121 296.188C201.149 300.156 202.598 305.872 204.408 312.913C207.985 327.079 212.919 346.622 218.388 368.24V368.312C218.388 368.497 218.388 368.713 218.388 368.919C217.474 391.319 216.641 411.601 216.034 426.322C215.716 433.652 215.448 439.584 215.263 443.716C215.16 445.772 215.078 447.335 215.027 448.445C215.027 448.969 214.965 449.38 214.955 449.679C214.956 449.82 214.943 449.961 214.914 450.1Z" fill="#455A64"/>
<path d="M207.05 366.482C205.318 367.052 203.534 367.448 201.724 367.665C199.504 368.045 197.612 368.312 196.759 368.353V368.148C197.037 368.23 197.181 368.281 197.181 368.323C197.181 368.364 197.006 368.323 196.718 368.323H196.101L196.718 368.137C197.52 367.901 199.411 367.51 201.632 367.109C203.413 366.723 205.227 366.513 207.05 366.482Z" fill="#455A64"/>
<path d="M206.628 369.433C205.025 369.506 203.418 369.434 201.827 369.217C200.222 369.184 198.622 369.009 197.047 368.693C200.26 368.43 203.494 368.68 206.628 369.433Z" fill="#455A64"/>
<path opacity="0.2" d="M156.42 291.706C156.96 292.399 157.64 292.971 158.416 293.384C159.192 293.796 160.046 294.041 160.923 294.101C162.759 294.319 164.617 294.284 166.443 293.998C178.214 292.693 190.684 291.49 202.208 288.684C187.291 289.516 171.532 289.239 156.616 290.071L156.462 291.346" fill="black"/>
<g opacity="0.2">
<path d="M171.789 312.729L180.198 345.357L179.612 314.106L171.789 312.729Z" fill="black"/>
</g>
</svg>
